<?xml version="1.0" standalone="no"?><!DOCTYPE svg PUBLIC "-//W3C//DTD SVG 1.1//EN" "http://www.w3.org/Graphics/SVG/1.1/DTD/svg11.dtd"><svg width="16" height="16" viewBox="0 0 16 16" version="1.1" xmlns="http://www.w3.org/2000/svg" xmlns:xlink="http://www.w3.org/1999/xlink"><defs><style type="text/css"><![CDATA[
@font-face { font-family: ifont; src: url("//at.alicdn.com/t/font_1442373896_4754455.eot?#iefix") format("embedded-opentype"), url("//at.alicdn.com/t/font_1442373896_4754455.woff") format("woff"), url("//at.alicdn.com/t/font_1442373896_4754455.ttf") format("truetype"), url("//at.alicdn.com/t/font_1442373896_4754455.svg#ifont") format("svg"); }

]]></style></defs><g class="transform-group"><g transform="scale(0.015625, 0.015625)"><path d="M886.653889 461.213313 549.728276 461.213313l0.563842-328.786235c0-0.237407-0.059352-0.414439-0.059352-0.64673l0-4.550643-0.50449 0c-3.068895-40.562834 2.286066-66.603931-38.932708-66.841338-41.213657-0.290619-39.987736 25.276686-42.499953 65.780169l-0.528026 0 0.059352 334.985424L135.470391 461.153962c-42.98193-0.290619-71.26816-6.569626-70.972425 36.415374 0.267083 42.987047 29.051663 36.175921 72.03871 36.471656l331.319941-0.236384 0.059352 343.725482c0.267083 42.985 0.283456 70.53752 43.265386 70.773903 42.986023 0.296759 37.925774-26.721595 37.635155-69.708642l0.587378-344.968799 338.317309-0.236384c42.986023 0.295735 71.26816 7.574512 70.972425-35.469839C958.397886 454.939423 929.640935 461.509049 886.653889 461.213313L886.653889 461.213313zM886.653889 461.213313" fill="#ffffff"></path></g></g></svg>